<svg id="Layer_1" data-name="Layer 1" xmlns="http://www.w3.org/2000/svg" viewBox="0 0 300.26 300.26"><defs><style>.cls-1{fill:none;stroke:#d9ffa2;stroke-linecap:round;stroke-linejoin:round;stroke-width:5px;}</style></defs><polyline class="cls-1" points="75.99 215.28 85.08 192.57 66 140.79 233.14 140.79 214.97 191.66 223.15 215.28"/><line class="cls-1" x1="66" y1="218" x2="233.14" y2="218"/><line class="cls-1" x1="81.9" y1="156.69" x2="216.33" y2="156.69"/><line class="cls-1" x1="105.51" y1="193.02" x2="193.62" y2="193.02"/><path class="cls-1" d="M202.71,62.22c-.26,1.11-2.7,12.8,5.45,21.8a24.69,24.69,0,0,0,26.34,6.36"/><path class="cls-1" d="M180.91,67.67H190"/><path class="cls-1" d="M212.69,106c1.5-2.63,1.13-2.7,2.63-5.33"/><path class="cls-1" d="M180.91,86.74l10-3.63"/><path class="cls-1" d="M193.62,100.37,200.89,94"/><path class="cls-1" d="M228.5,112.9l-.72-9.63"/></svg>