<svg id="Layer_1" data-name="Layer 1" xmlns="http://www.w3.org/2000/svg" viewBox="0 0 300.26 300.26"><defs><style>.cls-1{fill:none;stroke:#d9ffa2;stroke-linecap:round;stroke-linejoin:round;stroke-width:5px;}</style></defs><path class="cls-1" d="M76.81,108.85c-4-3.92-9-17-5.77-22.25,3.08-5,12.28-5.14,16.48-6.59,28.08-9.69,42.11-14.54,47.81-9.07,3.81,3.66.94,6.59,5.76,14,7,10.81,19,13.65,20.61,14,3.87.86,11.64,2.59,19-1.65s10.06-12,10.71-14c2-6.36.06-9,2.47-11.54,3.38-3.59,9.06-.46,19.79,0,17,.74,26-6.16,29.67-1.64,1.62,2,.47,4,0,9.89-1.42,17.73,6.78,26.43,2.47,30.49-2.35,2.22-4.88-.27-18.13.83-8.17.67-9.93,1.85-10.72,2.47-5.39,4.26-4.45,13.82-4.12,17.31,0,0-3.3,81.59-7.42,99.73-.67,3-7.41,4.94-7.41,4.94-7.36,3.49-16.59-.93-19.79-1.65-13.4-3-23.35.84-37.09.83-11.52,0-18.61.07-28.84-1.65-10.51-1.77-15.63-4-18.14-8.24-2.68-4.57-1.4-9.91-.82-12.37,17.69-74.58,10.16-75.29,17.31-92.31.81-1.94,3.37-7.77.82-11.54-1.52-2.26-4.31-2.94-5.77-3.29-4.91-1.2-7.08,3.1-12.36,4.12C88.72,110.56,81,113,76.81,108.85Z"/><path class="cls-1" d="M174.57,120.06,200,122.51c.33.85-.79,8.2-1.58,16.41-.52,5.38-9.2,10.07-15.71,8.42-6.68-1.69-9.84-9.64-9.64-11.69C173.78,128.26,173.7,121.83,174.57,120.06Z"/></svg>