<svg id="Layer_1" data-name="Layer 1" xmlns="http://www.w3.org/2000/svg" viewBox="0 0 300.26 300.26"><defs><style>.cls-1,.cls-2{fill:none;stroke:#d9ffa2;stroke-width:5px;}.cls-1{stroke-miterlimit:10;}.cls-2{stroke-linecap:round;stroke-linejoin:round;}.cls-3{font-size:30.89px;fill:#d9ffa2;font-family:LearningCurve-Bold, Learning Curve;font-weight:700;}</style></defs><path class="cls-1" d="M81.89,218.88c-4.74,0-6.09-9.84-5.89-73,.18-56,.67-64.92,5.89-65.94,42.39-8.24,90.74-2.19,123.64,0,8.83.59,10.09,29.34,11.19,67.71,1.18,41.21-1.18,68.29-10,68.88C165.61,219.26,117.22,218.88,81.89,218.88Z"/><rect class="cls-1" x="94.25" y="114.67" width="102.45" height="68.3" rx="16.14"/><polyline class="cls-2" points="78.95 79.34 78.95 60.5 91.9 68.74 106.03 60.5 115.45 68.74 130.76 60.5 143.71 68.74 157.84 60.5 170.79 67.56 187.28 60.5 200.23 68.74 214.36 60.5 210.83 81.7"/><polyline class="cls-2" points="209.65 214.76 213.19 235.95 200.23 227.71 186.1 235.95 176.68 227.71 161.37 235.95 148.42 227.71 134.29 235.95 121.34 228.89 104.85 235.95 91.9 227.71 77.77 235.95 82.48 219.47"/><text class="cls-3" transform="translate(111.13 152.69)">sea kelp</text></svg>