<svg width="301" height="301" viewBox="0 0 301 301" fill="none" xmlns="http://www.w3.org/2000/svg">
<path d="M81.8894 218.879C77.1494 218.879 75.7994 209.039 75.9994 145.879C76.1794 89.8793 76.6694 80.9593 81.8894 79.9393C124.279 71.6993 172.629 77.7493 205.529 79.9393C214.359 80.5293 215.619 109.279 216.719 147.649C217.899 188.859 215.539 215.939 206.719 216.529C165.609 219.259 117.219 218.879 81.8894 218.879Z" stroke="#D9FFA2" stroke-width="5" stroke-miterlimit="10"/>
<path d="M180.56 114.67H110.39C101.476 114.67 94.25 121.896 94.25 130.81V166.83C94.25 175.744 101.476 182.97 110.39 182.97H180.56C189.474 182.97 196.7 175.744 196.7 166.83V130.81C196.7 121.896 189.474 114.67 180.56 114.67Z" stroke="#D9FFA2" stroke-width="5" stroke-miterlimit="10"/>
<path d="M78.9492 79.34V60.5L91.8992 68.74L106.029 60.5L115.449 68.74L130.759 60.5L143.709 68.74L157.839 60.5L170.789 67.56L187.279 60.5L200.229 68.74L214.359 60.5L210.829 81.7" stroke="#D9FFA2" stroke-width="5" stroke-linecap="round" stroke-linejoin="round"/>
<path d="M209.65 214.76L213.19 235.95L200.23 227.71L186.1 235.95L176.68 227.71L161.37 235.95L148.42 227.71L134.29 235.95L121.34 228.89L104.85 235.95L91.8995 227.71L77.7695 235.95L82.4795 219.47" stroke="#D9FFA2" stroke-width="5" stroke-linecap="round" stroke-linejoin="round"/>
<path d="M126.87 140.252C130.426 140.252 132.246 138.46 132.246 135.8C132.246 132.692 130.118 132.02 127.094 131.46C124.406 130.984 123.678 130.452 123.678 129.136C123.678 127.876 124.77 127.036 126.45 127.036C128.298 127.036 129.194 127.736 129.53 129.332H131.77C131.378 126.168 129.11 125.104 126.478 125.104C124.182 125.104 121.522 126.504 121.522 129.22C121.522 131.768 122.81 132.832 126.618 133.532C128.886 133.952 130.034 134.456 130.034 135.996C130.034 137.564 129.054 138.32 126.842 138.32C124.49 138.32 123.566 137.228 123.398 135.492H121.13C121.27 138.488 123.37 140.252 126.87 140.252ZM141.78 140.252C145.084 140.252 147.52 138.712 148.024 135.772H145.7C145.392 137.48 144.076 138.32 141.808 138.32C138.812 138.32 137.216 136.472 137.104 133.14H148.136V132.384C148.136 127.148 144.944 125.104 141.556 125.104C137.524 125.104 134.696 128.184 134.696 132.608V132.832C134.696 137.34 137.636 140.252 141.78 140.252ZM137.188 131.264C137.58 128.66 139.176 127.036 141.556 127.036C143.964 127.036 145.532 128.24 145.756 131.264H137.188ZM155.506 140.252C157.662 140.252 158.978 139.524 160.07 138.152V140H162.394V130.34C162.394 126.252 159.846 125.104 157.046 125.104C154.218 125.104 151.558 126.336 151.25 129.668H153.574C153.798 127.876 154.918 127.036 156.934 127.036C159.174 127.036 160.07 128.016 160.07 130.34V131.404H157.97C154.218 131.404 150.634 132.552 150.634 135.94C150.634 138.936 152.79 140.252 155.506 140.252ZM155.73 138.404C153.686 138.404 152.958 137.452 152.958 135.94C152.958 133.784 155.114 133.056 158.054 133.056H160.07V134.876C160.07 137.144 158.194 138.404 155.73 138.404ZM121.09 171H123.414V163.412L129.91 171H132.738L125.934 163.16L132.206 156.356H129.49L123.414 163.104V149.356H121.09V171ZM140.973 171.252C144.277 171.252 146.713 169.712 147.217 166.772H144.893C144.585 168.48 143.269 169.32 141.001 169.32C138.005 169.32 136.409 167.472 136.297 164.14H147.329V163.384C147.329 158.148 144.137 156.104 140.749 156.104C136.717 156.104 133.889 159.184 133.889 163.608V163.832C133.889 168.34 136.829 171.252 140.973 171.252ZM136.381 162.264C136.773 159.66 138.369 158.036 140.749 158.036C143.157 158.036 144.725 159.24 144.949 162.264H136.381ZM150.951 171H153.303V149.356H150.951V171ZM158.059 176.096H160.383V168.592C161.223 170.048 162.931 171.252 165.339 171.252C169.371 171.252 172.003 168.172 172.003 163.692V163.468C172.003 158.904 169.175 156.104 165.339 156.104C163.211 156.104 161.223 157.392 160.383 158.82V156.356H158.059V176.096ZM165.115 169.32C162.259 169.32 160.299 167.556 160.299 163.804V163.58C160.299 159.828 162.371 158.036 165.087 158.036C167.551 158.036 169.595 159.884 169.595 163.58V163.804C169.595 167.36 168.027 169.32 165.115 169.32Z" fill="#D9FFA2"/>
</svg>
