<svg id="Layer_1" data-name="Layer 1" xmlns="http://www.w3.org/2000/svg" viewBox="0 0 300.26 300.26" style=""><defs><style>.cls-1{fill:none;stroke:#d9ffa2;stroke-linecap:round;stroke-linejoin:round;stroke-width:5px;}</style></defs><path class="cls-1 qukiPuoC_0" d="M146.5,94H161a31,31,0,0,1,31,31V227.5a10,10,0,0,1-10,10H126.5a10,10,0,0,1-10-10V124A30,30,0,0,1,146.5,94Z"></path><path class="cls-1 qukiPuoC_1" width="26.1" height="32.62" d="M 149.73,63.2 L 157.82999999999998,63.2 A 9,9,0,0,1,166.82999999999998,72.2 L 166.82999999999998,86.82 A 9,9,0,0,1,157.82999999999998,95.82 L 149.73,95.82 A 9,9,0,0,1,140.73,86.82 L 140.73,72.2 A 9,9,0,0,1,149.73,63.2"></path><path class="cls-1 qukiPuoC_2" width="50.33" height="32.62" d="M 138.55,133.1 L 170.88,133.1 A 9,9,0,0,1,179.88,142.1 L 179.88,156.72 A 9,9,0,0,1,170.88,165.72 L 138.55,165.72 A 9,9,0,0,1,129.55,156.72 L 129.55,142.1 A 9,9,0,0,1,138.55,133.1"></path><path class="cls-1 qukiPuoC_3" d="M162.17,63.2L145.4,63.2L162.17,56.67L162.17,63.2Z"></path><style data-made-with="vivus-instant">.qukiPuoC_0{stroke-dasharray:404 406;stroke-dashoffset:405;animation:qukiPuoC_draw 2000ms linear 0ms forwards;}.qukiPuoC_1{stroke-dasharray:102 104;stroke-dashoffset:103;animation:qukiPuoC_draw 2000ms linear 333ms forwards;}.qukiPuoC_2{stroke-dasharray:151 153;stroke-dashoffset:152;animation:qukiPuoC_draw 2000ms linear 666ms forwards;}.qukiPuoC_3{stroke-dasharray:42 44;stroke-dashoffset:43;animation:qukiPuoC_draw 2000ms linear 1000ms forwards;}@keyframes qukiPuoC_draw{100%{stroke-dashoffset:0;}}@keyframes qukiPuoC_fade{0%{stroke-opacity:1;}94.44444444444444%{stroke-opacity:1;}100%{stroke-opacity:0;}}</style></svg>