<svg id="Layer_1" data-name="Layer 1" xmlns="http://www.w3.org/2000/svg" viewBox="0 0 300.26 300.26"><defs><style>.cls-1,.cls-2{fill:none;stroke:#d9ffa2;stroke-miterlimit:10;stroke-width:5px;}.cls-2{stroke-linecap:round;}</style></defs><path class="cls-1" d="M50.07,124.29C24.68,105.54,86.54,65,95.66,63.51c3.14-.53,1.47,5.58,6.84,16.71,3.23,6.69,7.29,15.11,16,20.52,7,4.38,14,4.89,19.76,5.31,6.64.49,14.6,1.08,23.55-2.27,4.44-1.67,7.6-3.73,10.64-2.28s3.64,5.21,4.56,8.35,4.68,8.74,12.15,19.76c11.75,17.31,19.25,28.37,32.67,36.47,7,4.23,15.69,7.67,26.6,16.71,3.32,2.75,7.23,6.34,7.59,11.4.24,3.21-1.11,5.94-3.79,11.4-2.47,5-3.71,7.53-6.08,9.11-2.75,1.84-5.44,1.81-12.92,1.52-10.26-.39-15.39-.58-16.71-.76-30.71-4.15-44.5-11.91-44.5-11.91C98.28,163.29,99.46,160.76,50.07,124.29Z"/><path class="cls-2" d="M61.09,110.23c27.68,25.89,66.23,54.76,117,75.22,15.37,6.2,26.1,9.94,32.67,11.4a150,150,0,0,0,44.06,3"/><path class="cls-2" d="M83.88,85.16a42.15,42.15,0,0,1,3,46.35"/><path class="cls-2" d="M185.69,137.59a84.22,84.22,0,0,1,.76-16c1.46-10,3.8-12.94,5.32-14.44.82-.8,4.09-4,6.84-3s3.79,5.7,3,9.11c-.91,4.16-4.66,7.27-8.36,8.36-4.52,1.33-6-1.22-13.67-.76-3.85.23-7.28.49-9.12,3-1.58,2.2-1.83,5.89,0,7.6,2,1.86,11.91-1.57,15.19-5.32"/><path class="cls-2" d="M201.65,126.19c-3.8-.76-9.88-.76-13.68-1.52"/><line class="cls-2" x1="182.66" y1="141.38" x2="196.33" y2="133.79"/><line class="cls-2" x1="187.97" y1="148.98" x2="201.65" y2="141.38"/><line class="cls-2" x1="194.05" y1="157.34" x2="207.73" y2="149.74"/></svg>